<svg width="50" height="35" viewBox="0 0 50 35" fill="none" xmlns="http://www.w3.org/2000/svg">
<path d="M15.2082 10.8784C16.8754 11.8243 18.75 13.9527 18.75 17.5C18.75 21.0473 16.8754 23.1757 15.2082 24.1216C14.3754 20.8108 14.3754 14.1892 15.2082 10.8784ZM13.5418 5.67567C9.37462 5.67567 9.37462 29.3243 13.5418 29.3243C17.7082 29.3243 22.9164 24.831 22.9164 17.5C22.9164 10.169 17.7082 5.67567 13.5418 5.67567ZM34.7918 10.8784C35.4164 14.1892 35.4164 20.8108 34.7918 24.1216C33.1254 23.1757 31.25 21.0473 31.25 17.5C31.25 13.9527 33.1254 11.8243 34.7918 10.8784ZM36.4582 5.67567C32.2918 5.67567 27.0836 10.169 27.0836 17.5C27.0836 24.831 32.2918 29.3243 36.4582 29.3243C40.6254 29.3243 40.6254 5.67567 36.4582 5.67567ZM10.2082 3.78383L5.20821 0L2.91642 4.02029L8.33359 8.04059C8.75001 6.38512 9.37537 4.72975 10.2082 3.78383ZM41.6664 8.04059L47.0836 4.02029L44.7918 0L39.7918 3.78383C40.4164 4.72975 41.25 6.14867 41.6664 8.04059ZM8.33359 26.9594L2.91642 30.9797L5.20821 35L10.2082 31.2162C9.58358 30.2702 8.75001 28.8513 8.33359 26.9594ZM42.7082 15.1352V19.8648H50V15.1352H42.7082ZM39.7918 31.2162L44.7918 35L47.0836 30.9797L41.6664 26.9594C41.25 28.6149 40.6254 30.2702 39.7918 31.2162ZM7.29179 17.5V15.1352H1.43051e-06V19.8648H7.29179V17.5Z" fill="#FFFFFF"/>
</svg>
