<svg width="43" height="34" viewBox="0 0 43 34" fill="none" xmlns="http://www.w3.org/2000/svg">
<path d="M19.0909 4.24999V2.74999H17.5909H13.2273V1.5H25.8636V2.74999H21.5H20V4.24999V8.49998V9.99998H21.5H31.7272V16.9999V18.4999H33.2272H37.1364H38.6364V16.9999V12.1249H41.5V30.3745H38.6364V25.4996V23.9996H37.1364H33.2272H31.7272V25.4996V32.5H18.2493L14.7859 28.7344L14.3402 28.2498H13.6818H9.31818V23.3748V21.8748H7.81818H3.90909H2.40909V23.3748V28.2498H1.5V14.2497H2.40909V19.1246V20.6246H3.90909H7.81818H9.31818V19.1246V13.3347L12.3856 9.99998H17.5909H19.0909V8.49998V4.24999Z" stroke="#FD0000" stroke-width="3"/>
<path d="M19.0898 13.42H22.3118V25.822H25.6598V28H19.0898V13.42Z" fill="#FD0000"/>
</svg>
