<svg width="43" height="34" viewBox="0 0 43 34" fill="none" xmlns="http://www.w3.org/2000/svg">
<path d="M23.9091 4.25V2.75H25.4091H29.7727V1.5H17.1364V2.75H21.5H23V4.25V8.5V10H21.5H11.2727V17V18.5H9.77274H5.86363H4.36363V17V12.125H1.5V30.375H4.36363V25.5V24H5.86363H9.77274H11.2727V25.5V32.5H24.7508L28.2141 28.7346L28.6598 28.25H29.3182H33.6818V23.375V21.875H35.1818H39.0909H40.5909V23.375V28.25H41.5V14.25H40.5909V19.125V20.625H39.0909H35.1818H33.6818V19.125V13.3349L30.6144 10H25.4091H23.9091V8.5V4.25Z" stroke="#EBFF00" stroke-width="3"/>
<path d="M17.6835 13.42H21.6975C23.2935 13.42 24.4995 13.702 25.3155 14.266C26.1315 14.83 26.5395 15.832 26.5395 17.272C26.5395 18.244 26.4135 19.018 26.1615 19.594C25.9095 20.17 25.4415 20.62 24.7575 20.944L26.7555 28H23.4255L21.8235 21.466H20.9055V28H17.6835V13.42ZM21.8055 19.612C22.4535 19.612 22.9035 19.444 23.1555 19.108C23.4195 18.76 23.5515 18.244 23.5515 17.56C23.5515 16.9 23.4315 16.408 23.1915 16.084C22.9515 15.748 22.5375 15.58 21.9495 15.58H20.9055V19.612H21.8055Z" fill="#EBFF00"/>
</svg>
