<svg width="39" height="30" viewBox="0 0 39 30" fill="none" xmlns="http://www.w3.org/2000/svg">
<g style="mix-blend-mode:lighten">
<path d="M33.0063 5.11111V6.16111H34.0563H34.331H36.8028C37.4401 6.16111 37.95 6.69455 37.95 7.33333V27.7778C37.95 28.4166 37.4401 28.95 36.8028 28.95H2.19718C1.55986 28.95 1.05 28.4166 1.05 27.7778V7.33333C1.05 6.69455 1.55987 6.16111 2.19718 6.16111H4.66901H4.94366H5.99366V5.11111V4.77778V1.05H13.2317V4.77778V5.11111V6.16111H14.2817H14.5563H24.4437H24.7183H25.7683V5.11111V4.77778V1.05H33.0063V4.77778V5.11111ZM13.9384 17.6611C14.9862 17.6611 15.881 16.7861 15.881 15.6389V14.3611C15.881 13.2139 14.9862 12.3389 13.9384 12.3389H5.28697C4.23917 12.3389 3.34437 13.2139 3.34437 14.3611V15.6389C3.34437 16.7861 4.23917 17.6611 5.28697 17.6611H13.9384ZM33.713 17.6611C34.7608 17.6611 35.6556 16.7861 35.6556 15.6389V14.3611C35.6556 13.214 34.7608 12.3389 33.713 12.3389H31.9479V10.5278C31.9479 9.38062 31.0531 8.50553 30.0053 8.50553H28.7694C27.7216 8.50553 26.8268 9.38062 26.8268 10.5278V12.3389H25.0616C24.0138 12.3389 23.119 13.2139 23.119 14.3611V15.6389C23.119 16.7861 24.0138 17.6611 25.0616 17.6611H26.8268V19.4722C26.8268 20.6194 27.7216 21.4945 28.7694 21.4945H30.0053C31.0531 21.4945 31.9479 20.6194 31.9479 19.4722V17.6611H33.713Z" stroke="white" stroke-width="2.1"/>
</g>
</svg>
